<?xml version="1.0" encoding="utf-8"?>
<!-- Generator: Adobe Illustrator 20.1.0, SVG Export Plug-In . SVG Version: 6.00 Build 0)  -->
<svg version="1.1"
	 id="svg2" inkscape:version="0.91 r13725" sodipodi:docname="flightningLogo.svg" xmlns:cc="http://creativecommons.org/ns#" xmlns:dc="http://purl.org/dc/elements/1.1/" xmlns:inkscape="http://www.inkscape.org/namespaces/inkscape" xmlns:rdf="http://www.w3.org/1999/02/22-rdf-syntax-ns#" xmlns:sodipodi="http://sodipodi.sourceforge.net/DTD/sodipodi-0.dtd" xmlns:svg="http://www.w3.org/2000/svg"
	 xmlns="http://www.w3.org/2000/svg" xmlns:xlink="http://www.w3.org/1999/xlink" x="0px" y="0px" viewBox="0 0 500 500"
	 style="enable-background:new 0 0 500 500;" xml:space="preserve">
<style type="text/css">
	.st0{display:none;}
	.st1{fill:none;}
	.st2{fill:#1A1A1A;}
	.st3{fill:#00FFFF;}
	.st4{fill:#0000FF;}
	.st5{fill:#333333;}
</style>
<sodipodi:namedview  bordercolor="#666666" borderopacity="1.0" id="base" inkscape:current-layer="layer1" inkscape:cx="253.8874" inkscape:cy="246.51522" inkscape:document-units="px" inkscape:pageopacity="0.0" inkscape:pageshadow="2" inkscape:window-height="745" inkscape:window-maximized="1" inkscape:window-width="1366" inkscape:window-x="-8" inkscape:window-y="-8" inkscape:zoom="0.98994949" pagecolor="#ffffff" showgrid="false" units="px">
	</sodipodi:namedview>
<g id="layer2" inkscape:groupmode="layer" inkscape:label="Photograph" sodipodi:insensitive="true" class="st0">
</g>
<g id="layer1" transform="translate(0,-552.36216)" inkscape:groupmode="layer" inkscape:label="Flightning Logo">
	<rect x="5" y="552.4" class="st1" width="495" height="500"/>
	<g id="g3373" transform="translate(8.5714286,-8.5714286)">
	</g>
	<path id="path3391" inkscape:connector-curvature="0" class="st2" d="M160.7,954.4c-6-1.4-9.6-4.8-8.4-7.9c0.8-2,2.3-2.2,9.5-1.4
		c11.2,1.3,15.8,0,17.6-4.7c1.9-4.9,0.9-5.7-3.2-2.8c-7.2,5-19.5,1.6-23.8-6.6c-3.4-6.6-2.1-17.7,2.7-22.4
		c4.8-4.8,15.4-6.2,20.6-2.7c3.4,2.2,3.9,2.2,6,0.1c1.3-1.3,3.7-2.1,5.4-1.9c2.9,0.4,3.1,1.3,3.5,20.2c0.4,19.4,0.3,19.8-3.3,24.2
		C181.7,955,172.2,957.1,160.7,954.4L160.7,954.4z M177.2,927.7c2-2,3.6-4.6,3.6-5.9c0-3.1-6.5-9.4-9.7-9.4
		c-8.4,0-12.6,11.8-5.9,16.6C169.7,932.2,173.1,931.8,177.2,927.7L177.2,927.7z M399.6,954.5c-5.5-1.4-9.1-4-9.1-6.7
		c0-2.8,4.8-5,7.3-3.4c2.5,1.6,14.4,1.8,16.8,0.2c1.8-1.1,5.3-9,4-9c-0.4,0-2.4,1.1-4.3,2.4c-5.2,3.4-15.8,2-20.6-2.9
		c-2.9-2.9-3.8-5.5-4.3-12.4c-0.6-8.4-0.4-8.9,4.5-13.8c4.3-4.3,6.1-5.1,11.4-5.1c3.5,0,7.8,1.1,9.7,2.4c3.2,2.2,3.5,2.2,4.7,0
		c1.7-3.1,6.1-3,9.2,0c2,2,2.3,4.9,1.9,18.4c-0.6,17.2-2.3,22.6-8.4,27.1C418.2,954.7,406.3,956.2,399.6,954.5L399.6,954.5z
		 M415.2,928.6c6.1-5,2.2-16.2-5.6-16.2c-4.8,0-8.8,4.3-8.8,9.4C400.7,930.1,408.8,933.8,415.2,928.6z M84.1,942.6
		c-1.1-1.1-1.7-6.6-1.7-14.8c0-11.5-0.3-13.3-2.9-14.9c-1.6-1-2.9-2.8-2.9-3.9s1.3-2.8,2.9-3.7c1.9-1,2.9-3,2.9-5.8
		c0-6,4.5-10.1,11.3-10.1c9.8,0,12.2,6,3.8,9.5c-5.6,2.3-6,5.5-0.8,5.8c7.7,0.4,7.4,8-0.4,9l-3.8,0.5v13.4c0,13-1.2,16.8-5.1,16.8
		C86.6,944.3,85.1,943.5,84.1,942.6L84.1,942.6z M111,942.7c-2.3-1.3-2.5-4.2-2.5-25.7c0-25,0.6-27.7,6-27.7c4.6,0,5.5,5,5.5,28
		c0,18.5-0.4,22.8-2.3,24.7C115.1,944.7,114.4,944.7,111,942.7L111,942.7z M132.4,942c-3.5-3.5-2.6-35,1-37.3c1.8-1.2,3.2-1.2,5.1,0
		c2.1,1.3,2.6,4.3,2.9,18.8c0.4,14.9,0.1,17.4-2.1,19C136.1,944.8,135.2,944.8,132.4,942z M203.3,942c-2-2-2.2-5.9-1.9-26.2
		c0.3-21,0.7-24.1,2.9-25.5c4.6-2.9,7.5,0.6,8,9.8c0.4,8.1,0.5,8.2,3.6,6c4.4-3.1,13-2.8,17.2,0.6c3.1,2.5,3.5,4,3.9,18.4
		c0.4,13.7,0.2,15.8-2.1,17.5c-3.3,2.4-4.2,2.4-7-0.4c-1.7-1.7-2.3-5.2-2.3-13.5c0-11.9-1.3-14.7-6.7-14.7c-4.7,0-6.3,4.1-6.3,16.5
		c0,9.3-0.4,11.1-2.8,12.4C206.2,944.7,206,944.7,203.3,942L203.3,942z M252.6,941.3c-3.6-2.8-3.8-3.7-3.8-15.2
		c0-6.9-0.6-12.2-1.4-12.2c-0.8,0-2.1-1.3-2.9-2.9c-1.2-2.3-0.9-3.5,1.3-5.7c1.5-1.5,3-4.3,3.3-6c1.1-7.5,10.1-7.2,11,0.4
		c0.3,2.8,1.5,3.9,4.8,4.5c3.7,0.7,4.3,1.4,3.9,4.9c-0.4,3.2-1.3,4.1-4.5,4.5c-4,0.5-4,0.5-3.6,10.1c0.4,8.9,0.7,9.7,4,10.5
		c4.4,1,5.6,5.6,2.1,8.2C262.9,945.2,256.9,944.7,252.6,941.3L252.6,941.3z M279.3,942.3c-1.1-1.3-1.5-7.9-1.3-19.9
		c0.4-17.7,0.4-17.9,3.9-18.4c2.2-0.3,4.3,0.5,5.4,2.1c1.7,2.4,2,2.4,4.5,0.1c4.2-3.8,13.5-3.2,17.6,1.2c2.9,3.1,3.5,5.5,4,15.8
		c0.8,14.5-0.2,19.1-4.1,20.4c-5.4,1.7-7.2-1.6-7.2-13.7c0-12.6-1.8-16.6-7.3-15.8c-4.9,0.7-7.1,6.1-7.2,17.2
		c0,9.2-1.5,12.9-5.2,12.9C281.7,944.3,280.2,943.4,279.3,942.3L279.3,942.3z M325.5,942.9c-1.7-1-2.3-5.1-2.7-17.2
		c-0.6-18.2,0.7-22.3,6.7-21.6l3.9,0.4l0.4,17.9C334.3,943.1,332.6,947.4,325.5,942.9L325.5,942.9z M346.7,941.6
		c-1.9-2.1-2.4-5.7-2.4-17.5c0-8.1,0.7-16.1,1.5-17.6c1.8-3.4,6.1-3.6,8.7-0.6c1.6,2,2.2,2,5.2,0c1.8-1.2,5.9-2.2,9.1-2.2
		c4.5,0,6.4,0.8,8.8,3.9c2.7,3.5,3,5.5,2.6,19c-0.3,12.5-0.8,15.4-2.9,16.7c-1.9,1.2-3.1,1-5.1-1c-1.9-1.9-2.7-5.5-3.1-14.4
		c-0.5-12.2-1.4-14-7-14c-4.6,0-6.2,4.1-6.2,16.2C355.8,943.6,352.4,948,346.7,941.6z M132.7,899.3c-5.7-3.3-1.2-11.1,5.4-9.4
		c4.5,1.1,5.1,7.2,0.8,9.5C135.6,901.2,135.8,901.2,132.7,899.3L132.7,899.3z M325.1,899.3c-3.1-1.8-3.3-6.1-0.3-8.6
		c2.8-2.3,9.8-0.3,10.4,3C336,898.4,329.7,902,325.1,899.3L325.1,899.3z M200.9,820.9c-2.7-1.8-6.4-6.2-8.2-9.7
		c-3.2-6.3-3.3-7.7-3.3-50.6c0-24.4,0.6-46.4,1.4-49.1c0.8-2.7,2.9-6.5,4.7-8.4c7.1-7.6,7.7-7.7,59.8-7.7c47.1,0,48.7,0.1,53.5,3.1
		c2.8,1.7,6.3,5.6,7.9,8.7c2.7,5.2,2.8,8.7,2.8,53c0,45.4-0.1,47.7-3,52.4c-7.3,12-5.9,11.7-61.8,11.7
		C206.3,824.2,205.7,824.2,200.9,820.9L200.9,820.9z M260.5,783.1c1.2-2.7,1-4.2-1-7.3c-1.4-2.1-2.3-4.1-2-4.3
		c0.3-0.3,8.9-5.2,19-10.9c14.5-8.2,18.4-11,18.4-13.5c0-3.5-3.9-8.3-6.8-8.3c-1.1,0-9.7,4.3-19.2,9.6c-9.5,5.3-17.6,9.7-17.9,9.8
		c-0.4,0.1-2.2-2.1-4.1-4.9c-3.8-5.6-9.1-6.8-11.7-2.7c-1.1,1.8-0.8,4,1.2,8.4c2.3,5.1,2.4,6.2,0.6,7.3c-3.8,2.4-7.3,1.4-9.7-3
		c-1.8-3.1-3.5-4.3-6.4-4.3c-6.1,0-7.7,4.4-4.1,11.4c5.6,11,15,14.6,24.9,9.5c2.4-1.3,4.5-2.1,4.7-1.8c0.2,0.3,1.4,2.3,2.8,4.4
		C252.5,787.7,258.3,788,260.5,783.1L260.5,783.1z"/>
	<rect id="rect4199" x="143.6" y="644.4" class="st1" width="212.1" height="197"/>
	<rect id="rect4201" x="114.3" y="648.4" class="st1" width="238.4" height="201"/>
	<rect id="rect4203" x="283" y="768.6" class="st1" width="51.5" height="24.2"/>
	<rect id="rect4205" x="155.7" y="663.6" class="st1" width="171.7" height="163.6"/>
	<path id="path4211" inkscape:connector-curvature="0" class="st3" d="M210.8,823.3c-6.7-0.5-8.9-1.6-13.3-6.2
		c-4.6-4.9-6.3-9-7.1-16.4c-0.8-7.7-0.8-60.4,0-77.1c0.6-11.5,0.7-12.5,2.6-16c2.4-4.5,7-8.7,10.8-9.9c1.5-0.5,9.5-1.2,17.7-1.6
		c19.1-1,78.7-0.3,83.1,0.9c4.2,1.2,10.2,6.7,12.4,11.5l1.7,3.8V760v47.9l-2.6,4.6c-4.7,8.3-7.3,9.7-20.1,10.7
		C286.4,824,219.9,824,210.8,823.3L210.8,823.3z M258.4,786.1c0.8-0.4,1.9-1.9,2.5-3.4c1-2.5,1-2.8-0.9-6.7
		c-1.1-2.3-1.8-4.3-1.7-4.4c0.2-0.2,6.9-4,14.9-8.7c16.9-9.7,21.3-12.7,21.9-15.1c0.6-2.3-1.8-6.8-4.6-8.4c-2.2-1.3-2.2-1.3-7.4,1.2
		c-2.9,1.3-11.2,5.7-18.4,9.7s-13.4,7.2-13.7,7.2c-0.3,0-1.6-1.6-3.1-3.5c-4.6-6.3-9.2-7.8-12.4-4c-1.9,2.3-1.8,3.6,0.9,10.2
		c0.9,2.2,1.5,4.4,1.3,4.9s-1.3,1.3-2.5,1.7c-2.8,1.1-4.8,0.2-7.5-3.4c-2.9-3.9-3.8-4.5-7.2-4.5c-6.1,0-7.5,4.4-3.7,12
		c5.3,10.6,14.6,14.1,25.2,9.2l4-1.8l2.2,3.4C251.3,786.4,254.9,788,258.4,786.1L258.4,786.1z"/>
	<path id="path4213" inkscape:connector-curvature="0" class="st4" d="M207.1,822.3c-7.3-1.8-13.5-8.9-15.5-17.6
		c-0.8-3.6-1-18.7-0.8-48.7c0.4-48.7,0.2-47.5,7.9-54.4c3-2.7,5.1-3.7,9.7-4.3c7.3-1,91.7-1.1,95.6,0c3.4,0.9,10.4,7.1,12.4,10.9
		c1.2,2.3,1.4,11.2,1.4,51.7v48.9l-3.3,4.9c-6.1,9.2-4.6,8.9-57.8,9.1C231.3,823,208.9,822.7,207.1,822.3L207.1,822.3z M258.9,786.1
		c0.6-0.4,1.7-1.8,2.4-3.1c1.1-2,1-3.1-0.6-6.4c-2.2-4.9-3.2-4,16.3-15.4c15.1-8.8,18.7-11.6,18.7-14.6c0-2.9-4.8-8.2-7.4-8.2
		c-1.2,0-9.8,4.1-19.2,9.1s-17.2,9.1-17.5,9.1s-2.5-2-5-4.5c-4.7-4.9-6.8-5.5-10.3-3c-2.7,1.9-2.8,4.4-0.6,10.2c0.9,2.4,1.4,5,1,5.8
		c-1.1,2.9-5.2,1.7-9-2.5c-3.8-4.2-7-5.1-10.9-3c-4.1,2.2-1.5,12.4,4.8,18.3c5.5,5.2,11.3,6.1,19.5,2.9l5-1.9l2.1,3.4
		c1.1,1.8,2.6,3.6,3.3,3.9C253.4,787,257.7,786.9,258.9,786.1L258.9,786.1z"/>
	<path id="path4215" inkscape:connector-curvature="0" class="st5" d="M111.3,942c-1.8-1.3-2-2.8-2-24.5c0-24.9,0.5-27.6,5-27.6
		c4.1,0,5,5,5,27.8c0,17.7-0.2,20.6-1.7,23C115.6,943.8,114.1,944.1,111.3,942z"/>
	<path id="path4217" inkscape:connector-curvature="0" class="st5" d="M111.3,942c-1.8-1.3-2-2.8-2-24.5c0-24.9,0.5-27.6,5-27.6
		c4.1,0,5,5,5,27.8c0,17.7-0.2,20.6-1.7,23C115.6,943.8,114.1,944.1,111.3,942z"/>
	<path id="path4221" inkscape:connector-curvature="0" class="st4" d="M250.4,756.8c-0.8-0.9-2.9-3.6-2.9-3.7c0-0.1,0.8,0.6,1.7,1.5
		s1.9,1.7,2.1,1.8c0.4,0.2,2.3-0.7,16.2-8.1c4.7-2.5,8.6-4.5,8.6-4.4c0,0-2,1.2-4.6,2.6c-2.6,1.4-6.9,3.7-9.7,5.2
		c-2.8,1.5-6.3,3.4-7.9,4.2l-2.9,1.5L250.4,756.8L250.4,756.8z"/>
	<path id="path4223" inkscape:connector-curvature="0" class="st4" d="M0,552.4"/>
	<path id="path4225" inkscape:connector-curvature="0" class="st4" d="M0,552.4"/>
	<path id="path4227" inkscape:connector-curvature="0" class="st4" d="M0,552.4"/>
	<path id="path4229" inkscape:connector-curvature="0" class="st4" d="M0,552.4"/>
	<path id="path4231" inkscape:connector-curvature="0" class="st4" d="M244.4,779.3c1.5-0.7,1.9-0.8,1.9-0.5c0,0.2-2.7,1.3-3.1,1.3
		C243,780,243.6,779.7,244.4,779.3z"/>
	<path id="path4233" inkscape:connector-curvature="0" class="st4" d="M251.7,786.2c-0.6-0.3-1.8-1.6-2.8-3
		c-0.9-1.4-0.7-1.4,0.3-0.1c0.8,1.1,2.1,2.3,3.2,3c0.5,0.3,0.5,0.4,0.3,0.4C252.4,786.4,252,786.3,251.7,786.2L251.7,786.2z"/>
	<path id="path4235" inkscape:connector-curvature="0" class="st4" d="M259.9,775.3c-1.1-2.5-1.5-3.6-1.3-3.7
		c0.3-0.3,10.8-6.3,10.9-6.2c0,0-1.3,0.9-2.9,1.9c-2.9,1.8-5.5,3.5-6.1,4.3c-0.5,0.6-0.9,1.7-0.8,2.3c0.1,0.3,0.4,1.2,0.7,1.9
		s0.6,1.4,0.5,1.5C260.8,777.3,260.4,776.5,259.9,775.3L259.9,775.3z"/>
	<path id="path4237" inkscape:connector-curvature="0" class="st4" d="M232,767c-0.5-0.2-1.3-0.6-1.8-1c-0.8-0.7-3.6-4-3.4-4.1
		c0,0,0.7,0.5,1.4,1.3c2.5,2.5,4.3,3.5,6.2,3.5c1,0,1.1,0,0.6,0.2C234.1,767.3,233,767.3,232,767z"/>
	<path id="path4239" inkscape:connector-curvature="0" class="st4" d="M0,552.4"/>
	<path id="path4243" inkscape:connector-curvature="0" class="st4" d="M236.8,763.8c0-0.2,0.1-0.3,0.1-0.1c0.1,0.1,0,0.3,0,0.3
		C236.8,764.1,236.8,764,236.8,763.8L236.8,763.8z"/>
	<path id="path4247" inkscape:connector-curvature="0" class="st4" d="M0,552.4"/>
	<path id="path4249" inkscape:connector-curvature="0" class="st4" d="M236.3,765.9c0.3-0.3,0.5-0.8,0.6-1.1
		c0.2-0.9-0.2-2.9-1.2-5.7c-0.5-1.5-0.9-2.7-0.8-2.7c0.1-0.1,2.5,6.3,2.8,7.7c0.2,0.9,0.1,1.3-0.9,1.9
		C235.9,766.6,235.8,766.5,236.3,765.9L236.3,765.9z"/>
	<path id="path4255" inkscape:connector-curvature="0" class="st5" d="M84.7,942.3c-0.8-1-1.5-6.1-1.8-14.2
		c-0.4-11.5-0.7-12.9-2.9-15.5c-3-3.5-3-4.2,0-7c1.5-1.4,2.6-3.9,3-6.5c0.8-6.1,4.3-8.8,11.2-8.8c8.9,0,10.1,3.9,2.6,8.6
		c-4.8,3-5.2,5.3-1.3,6.2c4.7,1,5.3,1.3,5.9,3c0.9,2.4-1.5,4.5-5.8,5.2l-3.9,0.6v12.8c0,9.9-0.4,13.3-1.6,15
		C88.3,944.2,86.5,944.4,84.7,942.3L84.7,942.3z"/>
	<path id="path4257" inkscape:connector-curvature="0" class="st5" d="M133.8,942.5c-2.6-1.9-3.8-13.7-2.7-25.5
		c0.9-10,2-12.6,5.2-12.6c3.4,0,4.2,3.7,4.3,20.3c0.1,14.9,0,16.1-1.9,17.5C136.2,944.1,136,944.1,133.8,942.5z"/>
	<path id="path4259" inkscape:connector-curvature="0" class="st5" d="M160.3,953.8c-4.9-1.4-8.7-5.3-7-7.4c1-1.2,3-1.4,10.2-0.9
		c10.2,0.7,14.2-0.4,16-4.4c1.4-3,1.5-5.4,0.3-5.4c-0.5,0-3,0.9-5.6,2.1c-7.7,3.4-16.5,0.7-20.8-6.4c-2.6-4.3-2.7-14-0.2-18.9
		c3.5-7.1,14.1-9.8,23.2-6c2.8,1.2,3.6,1.1,6.8-0.6c6.1-3.3,6.6-2,6.7,19.4c0.1,17.3,0,18.5-2,21.4c-3.7,5.2-8.6,7.5-16.6,7.8
		C167.2,954.7,162.3,954.4,160.3,953.8z M174.7,930.1c3.6-1.8,7.1-7.1,6.2-9.4c-0.3-0.9-2-3.1-3.7-4.9c-4.3-4.5-9.5-4.6-13.2-0.2
		c-4.3,5.1-3.3,11.5,2.2,14.5C169.8,932,171,932,174.7,930.1L174.7,930.1z"/>
	<path id="path4261" inkscape:connector-curvature="0" class="st5" d="M204.5,942.2c-0.9-0.9-1.9-2.7-2.2-4.1
		c-0.8-3.3,0.1-43.9,1-46c0.4-0.9,1.6-1.9,2.6-2.2c3.2-0.8,5.2,2.6,5.8,9.9c0.3,3.7,0.9,6.9,1.4,7.2c0.5,0.3,2.2-0.2,3.8-1
		c6.6-3.4,16.2-1,18.1,4.5c0.6,1.8,1.1,9.3,1.1,16.8c0,13.3,0,13.5-2.6,15.2c-2.5,1.6-2.7,1.6-4.8-0.5c-1.9-1.9-2.3-3.8-2.9-13.5
		c-0.4-6.3-0.7-11.4-0.8-11.5c-1-1.8-3.9-3.4-6.2-3.4c-4.7,0-6.2,3.4-6.9,16.3c-0.5,9.4-0.9,11.4-2.6,12.6
		C207,944.2,206.4,944.2,204.5,942.2L204.5,942.2z"/>
	<path id="path4263" inkscape:connector-curvature="0" class="st5" d="M254.8,941.9c-1.7-1.1-3.6-2.5-4-3.3s-1.1-6.4-1.4-12.5
		c-0.5-9.7-0.8-11.4-2.8-13.4c-2.8-2.8-2.8-3.4,0.1-8.1c1.3-2.1,3-5.1,3.8-6.8c0.8-1.7,2.3-3.2,3.3-3.4c2.4-0.5,5.3,2.3,6,5.8
		c0.4,2.1,1.6,3.2,4.7,4.4c5.8,2.3,5.5,7.1-0.5,8.7c-2.9,0.8-3,1-3.2,8.3c-0.4,9.6,0.2,11.9,3.4,12.7c5,1.3,5.5,6.2,0.9,8.3
		C261.3,944.3,258.4,944.1,254.8,941.9z"/>
	<path id="path4265" inkscape:connector-curvature="0" class="st5" d="M0,552.4"/>
	<path id="path4267" inkscape:connector-curvature="0" class="st5" d="M132.2,897.9c-2.2-2.4-2.3-2.6-0.7-5.1c2.8-4.2,9.7-3,9.7,1.7
		c0,2.1-3.4,5.9-5.4,5.9C135.1,900.4,133.5,899.3,132.2,897.9z"/>
	<path id="path4269" inkscape:connector-curvature="0" class="st5" d="M324,897.8c-0.9-1.1-1-2.4-0.4-4.3c1.2-3.5,6-4.2,9.5-1.4
		c2.3,1.9,2.3,2,0.7,4.6C331.8,899.8,326.2,900.4,324,897.8z"/>
	<path id="path4271" inkscape:connector-curvature="0" class="st5" d="M280.2,942.2c-1.3-1.3-1.6-4.4-1.6-17.7c0-9.2,0.4-17,1-18.1
		c1.4-2.5,4.1-2.5,7.4,0.1l2.6,2.1l3-2.2c2.4-1.8,3.9-2.1,8.1-1.7c9.7,0.9,12.1,5.6,12.2,23.8c0,10.1-0.2,11.6-2.1,13.4
		c-4.8,4.8-8,0.2-8.1-11.7c-0.1-12.7-2.7-17.7-8.4-16.3c-4.4,1.1-6,4.8-6.8,15.8C286.6,943,284.5,946.5,280.2,942.2L280.2,942.2z"/>
	<path id="path4273" inkscape:connector-curvature="0" class="st5" d="M325.8,942.3c-3-3-3.6-32.8-0.7-36.3c0.7-0.9,2.8-1.6,4.7-1.6
		h3.4v17.1c0,9.4-0.4,18.3-1,19.7C331.1,944.2,328.1,944.7,325.8,942.3L325.8,942.3z"/>
	<path id="path4275" inkscape:connector-curvature="0" class="st5" d="M347.5,941.3c-1.3-1.7-2.2-4.8-2.6-9.8
		c-0.8-9.6,0.6-25,2.5-26.2c2.1-1.3,4.5-1.1,5.9,0.6c1.6,1.9,4,1.9,7.7,0c1.6-0.8,5.1-1.5,7.7-1.5c4,0,5.3,0.5,7.3,2.7
		c3.5,3.7,3.8,5.6,3.3,20.6c-0.3,10-0.8,13.5-2,14.6c-1.8,1.8-4.6,1.1-6-1.7c-0.8-1.4-2.5-15.5-2.9-23.3c-0.1-1.7-3.5-3.9-6-3.9
		c-5.1,0-6.3,2.7-7.2,15.7c-0.4,6.4-1.4,12.4-2,13.2C351.6,944.5,349.8,944.2,347.5,941.3L347.5,941.3z"/>
	<path id="path4277" inkscape:connector-curvature="0" class="st5" d="M398.7,953.7c-4.9-1.3-8.7-5.3-7-7.3c1-1.2,3.2-1.4,11.6-0.9
		c9.8,0.6,10.5,0.5,12.5-1.7c2.2-2.4,3.8-6.9,2.8-7.9c-0.3-0.3-2,0.2-3.7,1.3c-4.1,2.4-12.9,2.4-17.2-0.1c-5.5-3.2-7.2-6.5-7.7-14.9
		l-0.5-7.7l5-5c4.8-4.8,5.3-5,10.5-5c3.6,0,6.8,0.7,9.4,2.1l3.9,2.1l1.9-2.1c2.5-2.6,5.3-2.7,7.9-0.1c1.8,1.8,2,3.4,2,14.9
		c0,16.3-1.7,23.7-6.4,28.1C418.6,954.3,407.7,956.1,398.7,953.7L398.7,953.7z M416,928.2c5.2-5.2,1.9-14.9-5.4-15.5
		c-7.5-0.6-12.3,6.2-9.3,13.4C403.8,932.2,411,933.2,416,928.2L416,928.2z"/>
</g>
</svg>
